<svg width="117" height="89" viewBox="0 0 117 89" fill="none" xmlns="http://www.w3.org/2000/svg">
<path d="M117 62.8718C117 77.2932 105.044 88.9841 90.2944 88.9841C75.5452 88.9841 63.5886 77.2932 63.5886 62.8718C63.5886 48.4504 75.5452 36.7596 90.2944 36.7596C105.044 36.7596 117 48.4504 117 62.8718ZM74.2658 62.8718C74.2658 71.5274 81.442 78.5442 90.2944 78.5442C99.1467 78.5442 106.323 71.5274 106.323 62.8718C106.323 54.2162 99.1467 47.1994 90.2944 47.1994C81.442 47.1994 74.2658 54.2162 74.2658 62.8718Z" fill="#5A6569"/>
<path d="M54.0931 62.8718C54.0931 77.2932 42.1365 88.9841 27.3874 88.9841C12.6382 88.9841 0.681641 77.2932 0.681641 62.8718C0.681641 48.4504 12.6382 36.7596 27.3874 36.7596C42.1365 36.7596 54.0931 48.4504 54.0931 62.8718ZM11.3588 62.8718C11.3588 71.5274 18.535 78.5442 27.3874 78.5442C36.2397 78.5442 43.4159 71.5274 43.4159 62.8718C43.4159 54.2162 36.2397 47.1994 27.3874 47.1994C18.535 47.1994 11.3588 54.2162 11.3588 62.8718Z" fill="#5A6569"/>
<path d="M69.0376 12.2413C83.9179 19.2107 97.0239 15.441 101.717 12.685" stroke="#5A6569" stroke-width="11.8692" stroke-linecap="round"/>
<line x1="23.2332" y1="22.5166" x2="44.5978" y2="22.5166" stroke="#5A6569" stroke-width="11.8692" stroke-linecap="round"/>
</svg>
