<svg width="20" height="20" viewBox="0 0 20 20" fill="none" xmlns="http://www.w3.org/2000/svg">
<path fill-rule="evenodd" clip-rule="evenodd" d="M16.0662 14.3701C17.214 12.8655 17.8956 10.9863 17.8956 8.94782C17.8956 4.00608 13.8896 0 8.94782 0C4.00608 0 0 4.00608 0 8.94782C0 13.8896 4.00608 17.8956 8.94782 17.8956C10.9863 17.8956 12.8656 17.214 14.3701 16.0662L17.9977 19.6938L19.6938 17.9977L16.0662 14.3701ZM8.94782 15.3314C5.42227 15.3314 2.56424 12.4734 2.56424 8.94782C2.56424 5.42227 5.42227 2.56424 8.94782 2.56424C12.4734 2.56424 15.3314 5.42227 15.3314 8.94782C15.3314 12.4734 12.4734 15.3314 8.94782 15.3314Z" fill="#7C8C92"/>
</svg>
