<svg width="53" height="54" viewBox="0 0 53 54" fill="none" xmlns="http://www.w3.org/2000/svg">
<g filter="url(#filter0_d_25_84)">
<rect x="48" y="5" width="44" height="43" rx="13.9167" transform="rotate(90 48 5)" fill="white"/>
</g>
<path d="M17.1364 26.1591C16.3864 26.1591 15.7178 26.0303 15.1307 25.7727C14.5473 25.5152 14.0833 25.1572 13.7386 24.6989C13.3977 24.2367 13.2121 23.7008 13.1818 23.0909H14.6136C14.6439 23.4659 14.7727 23.7898 15 24.0625C15.2273 24.3314 15.5246 24.5398 15.892 24.6875C16.2595 24.8352 16.6667 24.9091 17.1136 24.9091C17.6136 24.9091 18.0568 24.822 18.4432 24.6477C18.8295 24.4735 19.1326 24.2311 19.3523 23.9205C19.572 23.6098 19.6818 23.25 19.6818 22.8409C19.6818 22.4129 19.5758 22.036 19.3636 21.7102C19.1515 21.3807 18.8409 21.1231 18.4318 20.9375C18.0227 20.7519 17.5227 20.6591 16.9318 20.6591H16V19.4091H16.9318C17.3939 19.4091 17.7992 19.3258 18.1477 19.1591C18.5 18.9924 18.7746 18.7576 18.9716 18.4545C19.1723 18.1515 19.2727 17.7955 19.2727 17.3864C19.2727 16.9924 19.1856 16.6496 19.0114 16.358C18.8371 16.0663 18.5909 15.839 18.2727 15.6761C17.9583 15.5133 17.5871 15.4318 17.1591 15.4318C16.7576 15.4318 16.3788 15.5057 16.0227 15.6534C15.6705 15.7973 15.3826 16.0076 15.1591 16.2841C14.9356 16.5568 14.8144 16.8864 14.7955 17.2727H13.4318C13.4545 16.6629 13.6383 16.1288 13.983 15.6705C14.3277 15.2083 14.7784 14.8485 15.3352 14.5909C15.8958 14.3333 16.5114 14.2045 17.1818 14.2045C17.9015 14.2045 18.5189 14.3504 19.0341 14.642C19.5492 14.9299 19.9451 15.3106 20.2216 15.7841C20.4981 16.2576 20.6364 16.7689 20.6364 17.3182C20.6364 17.9735 20.464 18.5322 20.1193 18.9943C19.7784 19.4564 19.3144 19.7765 18.7273 19.9545V20.0455C19.4621 20.1667 20.036 20.4792 20.4489 20.983C20.8617 21.483 21.0682 22.1023 21.0682 22.8409C21.0682 23.4735 20.8958 24.0417 20.5511 24.5455C20.2102 25.0455 19.7443 25.4394 19.1534 25.7273C18.5625 26.0152 17.8902 26.1591 17.1364 26.1591ZM25.8239 19.5C25.3428 19.5 24.9034 19.3826 24.5057 19.1477C24.1117 18.9129 23.7973 18.5985 23.5625 18.2045C23.3277 17.8068 23.2102 17.3674 23.2102 16.8864C23.2102 16.4053 23.3277 15.9678 23.5625 15.5739C23.7973 15.1761 24.1117 14.8598 24.5057 14.625C24.9034 14.3902 25.3428 14.2727 25.8239 14.2727C26.3049 14.2727 26.7424 14.3902 27.1364 14.625C27.5341 14.8598 27.8504 15.1761 28.0852 15.5739C28.3201 15.9678 28.4375 16.4053 28.4375 16.8864C28.4375 17.3674 28.3201 17.8068 28.0852 18.2045C27.8504 18.5985 27.5341 18.9129 27.1364 19.1477C26.7424 19.3826 26.3049 19.5 25.8239 19.5ZM25.8239 18.3636C26.0966 18.3636 26.3447 18.2973 26.5682 18.1648C26.7917 18.0322 26.9697 17.8542 27.1023 17.6307C27.2348 17.4072 27.3011 17.1591 27.3011 16.8864C27.3011 16.6136 27.2348 16.3655 27.1023 16.142C26.9697 15.9186 26.7917 15.7405 26.5682 15.608C26.3447 15.4754 26.0966 15.4091 25.8239 15.4091C25.5511 15.4091 25.303 15.4754 25.0795 15.608C24.8561 15.7405 24.678 15.9186 24.5455 16.142C24.4129 16.3655 24.3466 16.6136 24.3466 16.8864C24.3466 17.1591 24.4129 17.4072 24.5455 17.6307C24.678 17.8542 24.8561 18.0322 25.0795 18.1648C25.303 18.2973 25.5511 18.3636 25.8239 18.3636ZM40.0384 18H38.6293C38.5459 17.5947 38.4001 17.2386 38.1918 16.9318C37.9872 16.625 37.7372 16.3674 37.4418 16.1591C37.1501 15.947 36.8262 15.7879 36.4702 15.6818C36.1141 15.5758 35.7429 15.5227 35.3565 15.5227C34.652 15.5227 34.0137 15.7008 33.4418 16.0568C32.8736 16.4129 32.4209 16.9375 32.0838 17.6307C31.7505 18.3239 31.5838 19.1742 31.5838 20.1818C31.5838 21.1894 31.7505 22.0398 32.0838 22.733C32.4209 23.4261 32.8736 23.9508 33.4418 24.3068C34.0137 24.6629 34.652 24.8409 35.3565 24.8409C35.7429 24.8409 36.1141 24.7879 36.4702 24.6818C36.8262 24.5758 37.1501 24.4186 37.4418 24.2102C37.7372 23.9981 37.9872 23.7386 38.1918 23.4318C38.4001 23.1212 38.5459 22.7652 38.6293 22.3636H40.0384C39.9323 22.9583 39.7391 23.4905 39.4588 23.9602C39.1785 24.4299 38.83 24.8295 38.4134 25.1591C37.9967 25.4848 37.5289 25.733 37.0099 25.9034C36.4948 26.0739 35.9437 26.1591 35.3565 26.1591C34.3641 26.1591 33.4815 25.9167 32.7088 25.4318C31.9361 24.947 31.3281 24.2576 30.8849 23.3636C30.4418 22.4697 30.2202 21.4091 30.2202 20.1818C30.2202 18.9545 30.4418 17.8939 30.8849 17C31.3281 16.1061 31.9361 15.4167 32.7088 14.9318C33.4815 14.447 34.3641 14.2045 35.3565 14.2045C35.9437 14.2045 36.4948 14.2898 37.0099 14.4602C37.5289 14.6307 37.9967 14.8807 38.4134 15.2102C38.83 15.536 39.1785 15.9337 39.4588 16.4034C39.7391 16.8693 39.9323 17.4015 40.0384 18Z" fill="#5A6669"/>
<path d="M16 40.122C19.6689 42.9268 21.1142 42.8048 24.2272 41.0976C27.4386 39.3363 29.7305 40.4878 31.7317 42.2561" stroke="#5A6569" stroke-width="1.21951"/>
<path d="M23.41 34.2924C22.2957 34.5051 19.6212 36.4271 19.9024 38.7195C19.9024 39.9145 21.386 39.3218 23.0462 38.1382C24.7064 36.9547 26.7591 36.9981 27.7967 36.9981C27.8753 37.3729 27.904 35.6098 27.7967 34.6342C27.6081 32.918 24.9847 33.9917 23.41 34.2924Z" fill="#5A6569"/>
<path d="M32.7074 32.8659C32.7074 33.9772 31.8065 34.8781 30.6952 34.8781C29.5839 34.8781 28.683 33.9772 28.683 32.8659C28.683 31.7546 29.5839 30.8537 30.6952 30.8537C31.8065 30.8537 32.7074 31.7546 32.7074 32.8659Z" fill="#5A6569"/>
<path d="M33.5 38.6586C31.6707 36.8293 30.4469 36.3073 27.8902 36.3415" stroke="#5A6569" stroke-width="1.34146" stroke-linecap="round"/>
<path d="M21.792 32.3443C21.4355 32.4449 21.065 32.2375 20.9643 31.881C20.8637 31.5245 21.0711 31.1539 21.4276 31.0533L21.792 32.3443ZM26.312 34.4835C25.6218 32.7253 23.9163 31.7445 21.792 32.3443L21.4276 31.0533C24.2247 30.2636 26.6221 31.6022 27.5607 33.9933L26.312 34.4835Z" fill="#5A6569"/>
<defs>
<filter id="filter0_d_25_84" x="0" y="0" width="53" height="54" filterUnits="userSpaceOnUse" color-interpolation-filters="sRGB">
<feFlood flood-opacity="0" result="BackgroundImageFix"/>
<feColorMatrix in="SourceAlpha" type="matrix" values="0 0 0 0 0 0 0 0 0 0 0 0 0 0 0 0 0 0 127 0" result="hardAlpha"/>
<feOffset/>
<feGaussianBlur stdDeviation="2.5"/>
<feComposite in2="hardAlpha" operator="out"/>
<feColorMatrix type="matrix" values="0 0 0 0 0 0 0 0 0 0 0 0 0 0 0 0 0 0 0.2 0"/>
<feBlend mode="normal" in2="BackgroundImageFix" result="effect1_dropShadow_25_84"/>
<feBlend mode="normal" in="SourceGraphic" in2="effect1_dropShadow_25_84" result="shape"/>
</filter>
</defs>
</svg>
