<svg width="20" height="13" viewBox="0 0 20 13" fill="none" xmlns="http://www.w3.org/2000/svg">
<path d="M1 10.122C4.66888 12.9268 6.11419 12.8048 9.22718 11.0976C12.4386 9.3363 14.7305 10.4878 16.7317 12.2561" stroke="#5A6569" stroke-width="1.21951"/>
<path d="M8.41002 4.29237C7.29568 4.50511 4.62122 6.42711 4.90242 8.71954C4.90242 9.9145 6.38603 9.32175 8.04624 8.1382C9.70645 6.95466 11.7591 6.99812 12.7967 6.99812C12.8753 7.37291 12.904 5.60985 12.7967 4.63418C12.6081 2.91803 9.98474 3.99173 8.41002 4.29237Z" fill="#5A6569"/>
<path d="M17.7074 2.86588C17.7074 3.97719 16.8065 4.87808 15.6952 4.87808C14.5839 4.87808 13.683 3.97719 13.683 2.86588C13.683 1.75458 14.5839 0.853687 15.6952 0.853687C16.8065 0.853687 17.7074 1.75458 17.7074 2.86588Z" fill="#5A6569"/>
<path d="M18.5 8.65857C16.6707 6.8293 15.4469 6.30732 12.8902 6.34149" stroke="#5A6569" stroke-width="1.34146" stroke-linecap="round"/>
<path d="M6.79205 2.34427C6.43555 2.44492 6.06496 2.23751 5.96431 1.88101C5.86366 1.52452 6.07107 1.15392 6.42757 1.05328L6.79205 2.34427ZM11.312 4.48346C10.6218 2.72532 8.91635 1.74453 6.79205 2.34427L6.42757 1.05328C9.22473 0.263566 11.6221 1.60223 12.5607 3.99329L11.312 4.48346Z" fill="#5A6569"/>
</svg>
